<svg width="181" height="32" viewBox="0 0 181 32" fill="none" xmlns="http://www.w3.org/2000/svg">
<path d="M32.184 21V9.8H35.624C37.5973 9.8 39.048 10.3013 39.976 11.304C40.9147 12.3067 41.384 13.6827 41.384 15.432C41.384 17.1493 40.9147 18.5093 39.976 19.512C39.048 20.504 37.5973 21 35.624 21H32.184ZM33.528 19.88H35.592C36.68 19.88 37.544 19.704 38.184 19.352C38.8347 18.9893 39.2987 18.4773 39.576 17.816C39.8533 17.144 39.992 16.3493 39.992 15.432C39.992 14.4933 39.8533 13.688 39.576 13.016C39.2987 12.344 38.8347 11.8267 38.184 11.464C37.544 11.1013 36.68 10.92 35.592 10.92H33.528V19.88ZM43.2446 21V9.48H44.5886V14.424C44.8553 13.9333 45.234 13.5547 45.7246 13.288C46.2153 13.0107 46.7486 12.872 47.3246 12.872C48.242 12.872 48.978 13.16 49.5326 13.736C50.0873 14.3013 50.3646 15.176 50.3646 16.36V21H49.0366V16.504C49.0366 14.8507 48.37 14.024 47.0366 14.024C46.3433 14.024 45.762 14.2747 45.2926 14.776C44.8233 15.2667 44.5886 15.9707 44.5886 16.888V21H43.2446ZM55.0409 21.192C54.3795 21.192 53.8302 21.08 53.3929 20.856C52.9555 20.632 52.6302 20.3333 52.4169 19.96C52.2035 19.5867 52.0969 19.1813 52.0969 18.744C52.0969 17.9333 52.4062 17.3093 53.0249 16.872C53.6435 16.4347 54.4862 16.216 55.5529 16.216H57.6969V16.12C57.6969 15.4267 57.5155 14.904 57.1529 14.552C56.7902 14.1893 56.3049 14.008 55.6969 14.008C55.1742 14.008 54.7209 14.1413 54.3369 14.408C53.9635 14.664 53.7289 15.0427 53.6329 15.544H52.2569C52.3102 14.968 52.5022 14.4827 52.8329 14.088C53.1742 13.6933 53.5955 13.3947 54.0969 13.192C54.5982 12.9787 55.1315 12.872 55.6969 12.872C56.8062 12.872 57.6382 13.1707 58.1929 13.768C58.7582 14.3547 59.0409 15.1387 59.0409 16.12V21H57.8409L57.7609 19.576C57.5369 20.024 57.2062 20.408 56.7689 20.728C56.3422 21.0373 55.7662 21.192 55.0409 21.192ZM55.2489 20.056C55.7609 20.056 56.1982 19.9227 56.5609 19.656C56.9342 19.3893 57.2169 19.0427 57.4089 18.616C57.6009 18.1893 57.6969 17.7413 57.6969 17.272V17.256H55.6649C54.8755 17.256 54.3155 17.3947 53.9849 17.672C53.6649 17.9387 53.5049 18.2747 53.5049 18.68C53.5049 19.096 53.6542 19.432 53.9529 19.688C54.2622 19.9333 54.6942 20.056 55.2489 20.056ZM61.0571 21V9.48H62.4011V16.408L65.6491 13.064H67.2971L63.7771 16.648L67.7451 21H66.0331L62.4011 16.888V21H61.0571ZM71.6971 21.192C71.0358 21.192 70.4865 21.08 70.0491 20.856C69.6118 20.632 69.2865 20.3333 69.0731 19.96C68.8598 19.5867 68.7531 19.1813 68.7531 18.744C68.7531 17.9333 69.0625 17.3093 69.6811 16.872C70.2998 16.4347 71.1425 16.216 72.2091 16.216H74.3531V16.12C74.3531 15.4267 74.1718 14.904 73.8091 14.552C73.4465 14.1893 72.9611 14.008 72.3531 14.008C71.8305 14.008 71.3771 14.1413 70.9931 14.408C70.6198 14.664 70.3851 15.0427 70.2891 15.544H68.9131C68.9665 14.968 69.1585 14.4827 69.4891 14.088C69.8305 13.6933 70.2518 13.3947 70.7531 13.192C71.2545 12.9787 71.7878 12.872 72.3531 12.872C73.4625 12.872 74.2945 13.1707 74.8491 13.768C75.4145 14.3547 75.6971 15.1387 75.6971 16.12V21H74.4971L74.4171 19.576C74.1931 20.024 73.8625 20.408 73.4251 20.728C72.9985 21.0373 72.4225 21.192 71.6971 21.192ZM71.9051 20.056C72.4171 20.056 72.8545 19.9227 73.2171 19.656C73.5905 19.3893 73.8731 19.0427 74.0651 18.616C74.2571 18.1893 74.3531 17.7413 74.3531 17.272V17.256H72.3211C71.5318 17.256 70.9718 17.3947 70.6411 17.672C70.3211 17.9387 70.1611 18.2747 70.1611 18.68C70.1611 19.096 70.3105 19.432 70.6091 19.688C70.9185 19.9333 71.3505 20.056 71.9051 20.056ZM76.6414 22.904L77.5694 19.368H78.9614L77.5694 22.904H76.6414ZM84.8715 21V9.8H88.8075C89.5968 9.8 90.2475 9.928 90.7595 10.184C91.2822 10.4293 91.6715 10.7707 91.9275 11.208C92.1835 11.6347 92.3115 12.1147 92.3115 12.648C92.3115 13.3733 92.1142 13.944 91.7195 14.36C91.3355 14.776 90.8715 15.064 90.3275 15.224C90.7435 15.2987 91.1222 15.464 91.4635 15.72C91.8048 15.976 92.0715 16.296 92.2635 16.68C92.4662 17.064 92.5675 17.4853 92.5675 17.944C92.5675 18.5093 92.4288 19.0267 92.1515 19.496C91.8742 19.9547 91.4635 20.3227 90.9195 20.6C90.3755 20.8667 89.7142 21 88.9355 21H84.8715ZM86.2155 14.696H88.7115C89.4262 14.696 89.9755 14.5307 90.3595 14.2C90.7435 13.8587 90.9355 13.3893 90.9355 12.792C90.9355 12.2267 90.7435 11.7733 90.3595 11.432C89.9862 11.0907 89.4208 10.92 88.6635 10.92H86.2155V14.696ZM86.2155 19.88H88.7915C89.5595 19.88 90.1515 19.704 90.5675 19.352C90.9835 18.9893 91.1915 18.488 91.1915 17.848C91.1915 17.2187 90.9728 16.7173 90.5355 16.344C90.0982 15.96 89.5062 15.768 88.7595 15.768H86.2155V19.88ZM97.0565 21.192C96.3952 21.192 95.8458 21.08 95.4085 20.856C94.9712 20.632 94.6458 20.3333 94.4325 19.96C94.2192 19.5867 94.1125 19.1813 94.1125 18.744C94.1125 17.9333 94.4218 17.3093 95.0405 16.872C95.6592 16.4347 96.5018 16.216 97.5685 16.216H99.7125V16.12C99.7125 15.4267 99.5312 14.904 99.1685 14.552C98.8058 14.1893 98.3205 14.008 97.7125 14.008C97.1898 14.008 96.7365 14.1413 96.3525 14.408C95.9792 14.664 95.7445 15.0427 95.6485 15.544H94.2725C94.3258 14.968 94.5178 14.4827 94.8485 14.088C95.1898 13.6933 95.6112 13.3947 96.1125 13.192C96.6138 12.9787 97.1472 12.872 97.7125 12.872C98.8218 12.872 99.6538 13.1707 100.209 13.768C100.774 14.3547 101.057 15.1387 101.057 16.12V21H99.8565L99.7765 19.576C99.5525 20.024 99.2218 20.408 98.7845 20.728C98.3578 21.0373 97.7818 21.192 97.0565 21.192ZM97.2645 20.056C97.7765 20.056 98.2138 19.9227 98.5765 19.656C98.9498 19.3893 99.2325 19.0427 99.4245 18.616C99.6165 18.1893 99.7125 17.7413 99.7125 17.272V17.256H97.6805C96.8912 17.256 96.3312 17.3947 96.0005 17.672C95.6805 17.9387 95.5205 18.2747 95.5205 18.68C95.5205 19.096 95.6698 19.432 95.9685 19.688C96.2778 19.9333 96.7098 20.056 97.2645 20.056ZM103.073 21V13.064H104.289L104.369 14.488C104.625 13.9867 104.993 13.592 105.473 13.304C105.953 13.016 106.497 12.872 107.105 12.872C108.043 12.872 108.79 13.16 109.345 13.736C109.91 14.3013 110.193 15.176 110.193 16.36V21H108.849V16.504C108.849 14.8507 108.166 14.024 106.801 14.024C106.118 14.024 105.547 14.2747 105.089 14.776C104.641 15.2667 104.417 15.9707 104.417 16.888V21H103.073ZM115.365 18.504C114.917 18.504 114.506 18.4453 114.133 18.328L113.333 19.08C113.45 19.1653 113.594 19.24 113.765 19.304C113.946 19.3573 114.202 19.4107 114.533 19.464C114.864 19.5067 115.328 19.5547 115.925 19.608C116.992 19.6827 117.754 19.928 118.213 20.344C118.672 20.76 118.901 21.304 118.901 21.976C118.901 22.4347 118.773 22.872 118.517 23.288C118.272 23.704 117.888 24.0453 117.365 24.312C116.853 24.5787 116.192 24.712 115.381 24.712C114.666 24.712 114.032 24.616 113.477 24.424C112.922 24.2427 112.49 23.96 112.181 23.576C111.872 23.2027 111.717 22.728 111.717 22.152C111.717 21.8533 111.797 21.528 111.957 21.176C112.117 20.8347 112.416 20.5093 112.853 20.2C112.618 20.104 112.416 20.0027 112.245 19.896C112.085 19.7787 111.936 19.6507 111.797 19.512V19.144L113.157 17.8C112.528 17.2667 112.213 16.5627 112.213 15.688C112.213 15.1653 112.336 14.6907 112.581 14.264C112.826 13.8373 113.184 13.5013 113.653 13.256C114.122 13 114.693 12.872 115.365 12.872C115.824 12.872 116.24 12.936 116.613 13.064H119.541V14.072L118.053 14.136C118.362 14.584 118.517 15.1013 118.517 15.688C118.517 16.2107 118.389 16.6853 118.133 17.112C117.888 17.5387 117.53 17.88 117.061 18.136C116.602 18.3813 116.037 18.504 115.365 18.504ZM115.365 17.4C115.93 17.4 116.378 17.256 116.709 16.968C117.05 16.6693 117.221 16.2427 117.221 15.688C117.221 15.144 117.05 14.728 116.709 14.44C116.378 14.1413 115.93 13.992 115.365 13.992C114.789 13.992 114.33 14.1413 113.989 14.44C113.658 14.728 113.493 15.144 113.493 15.688C113.493 16.2427 113.658 16.6693 113.989 16.968C114.33 17.256 114.789 17.4 115.365 17.4ZM113.029 22.024C113.029 22.5573 113.253 22.952 113.701 23.208C114.149 23.4747 114.709 23.608 115.381 23.608C116.042 23.608 116.57 23.464 116.965 23.176C117.37 22.888 117.573 22.504 117.573 22.024C117.573 21.6827 117.434 21.384 117.157 21.128C116.88 20.8827 116.368 20.7387 115.621 20.696C115.034 20.6533 114.528 20.6 114.101 20.536C113.664 20.7707 113.376 21.0213 113.237 21.288C113.098 21.5653 113.029 21.8107 113.029 22.024ZM121.057 21V9.48H122.401V21H121.057ZM127.244 21.192C126.583 21.192 126.033 21.08 125.596 20.856C125.159 20.632 124.833 20.3333 124.62 19.96C124.407 19.5867 124.3 19.1813 124.3 18.744C124.3 17.9333 124.609 17.3093 125.228 16.872C125.847 16.4347 126.689 16.216 127.756 16.216H129.9V16.12C129.9 15.4267 129.719 14.904 129.356 14.552C128.993 14.1893 128.508 14.008 127.9 14.008C127.377 14.008 126.924 14.1413 126.54 14.408C126.167 14.664 125.932 15.0427 125.836 15.544H124.46C124.513 14.968 124.705 14.4827 125.036 14.088C125.377 13.6933 125.799 13.3947 126.3 13.192C126.801 12.9787 127.335 12.872 127.9 12.872C129.009 12.872 129.841 13.1707 130.396 13.768C130.961 14.3547 131.244 15.1387 131.244 16.12V21H130.044L129.964 19.576C129.74 20.024 129.409 20.408 128.972 20.728C128.545 21.0373 127.969 21.192 127.244 21.192ZM127.452 20.056C127.964 20.056 128.401 19.9227 128.764 19.656C129.137 19.3893 129.42 19.0427 129.612 18.616C129.804 18.1893 129.9 17.7413 129.9 17.272V17.256H127.868C127.079 17.256 126.519 17.3947 126.188 17.672C125.868 17.9387 125.708 18.2747 125.708 18.68C125.708 19.096 125.857 19.432 126.156 19.688C126.465 19.9333 126.897 20.056 127.452 20.056ZM136.86 21.192C136.071 21.192 135.378 21.0107 134.78 20.648C134.194 20.2853 133.735 19.7893 133.404 19.16C133.084 18.5307 132.924 17.816 132.924 17.016C132.924 16.216 133.09 15.5067 133.42 14.888C133.751 14.2587 134.21 13.768 134.796 13.416C135.383 13.0533 136.076 12.872 136.876 12.872C137.527 12.872 138.103 13.0053 138.604 13.272C139.106 13.5387 139.495 13.912 139.772 14.392V9.48H141.116V21H139.9L139.772 19.688C139.516 20.072 139.148 20.4187 138.668 20.728C138.188 21.0373 137.586 21.192 136.86 21.192ZM137.004 20.024C137.538 20.024 138.007 19.9013 138.412 19.656C138.828 19.4 139.148 19.048 139.372 18.6C139.607 18.152 139.724 17.6293 139.724 17.032C139.724 16.4347 139.607 15.912 139.372 15.464C139.148 15.016 138.828 14.6693 138.412 14.424C138.007 14.168 137.538 14.04 137.004 14.04C136.482 14.04 136.012 14.168 135.596 14.424C135.191 14.6693 134.871 15.016 134.636 15.464C134.412 15.912 134.3 16.4347 134.3 17.032C134.3 17.6293 134.412 18.152 134.636 18.6C134.871 19.048 135.191 19.4 135.596 19.656C136.012 19.9013 136.482 20.024 137.004 20.024ZM146.875 21.192C146.118 21.192 145.446 21.0213 144.859 20.68C144.272 20.328 143.808 19.8427 143.467 19.224C143.136 18.6053 142.971 17.8747 142.971 17.032C142.971 16.2 143.136 15.4747 143.467 14.856C143.798 14.2267 144.256 13.7413 144.843 13.4C145.44 13.048 146.128 12.872 146.907 12.872C147.675 12.872 148.336 13.048 148.891 13.4C149.456 13.7413 149.888 14.1947 150.187 14.76C150.486 15.3253 150.635 15.9333 150.635 16.584C150.635 16.7013 150.63 16.8187 150.619 16.936C150.619 17.0533 150.619 17.1867 150.619 17.336H144.299C144.331 17.944 144.47 18.4507 144.715 18.856C144.971 19.2507 145.286 19.5493 145.659 19.752C146.043 19.9547 146.448 20.056 146.875 20.056C147.43 20.056 147.894 19.928 148.267 19.672C148.64 19.416 148.912 19.0693 149.083 18.632H150.411C150.198 19.368 149.787 19.9813 149.179 20.472C148.582 20.952 147.814 21.192 146.875 21.192ZM146.875 14.008C146.235 14.008 145.664 14.2053 145.163 14.6C144.672 14.984 144.39 15.5493 144.315 16.296H149.307C149.275 15.5813 149.03 15.0213 148.571 14.616C148.112 14.2107 147.547 14.008 146.875 14.008ZM155.457 21.192C154.507 21.192 153.718 20.952 153.089 20.472C152.459 19.992 152.091 19.3413 151.985 18.52H153.361C153.446 18.936 153.665 19.2987 154.017 19.608C154.379 19.9067 154.865 20.056 155.473 20.056C156.038 20.056 156.454 19.9387 156.721 19.704C156.987 19.4587 157.121 19.1707 157.121 18.84C157.121 18.36 156.945 18.04 156.593 17.88C156.251 17.72 155.766 17.576 155.137 17.448C154.71 17.3627 154.283 17.24 153.857 17.08C153.43 16.92 153.073 16.696 152.785 16.408C152.497 16.1093 152.353 15.72 152.353 15.24C152.353 14.5467 152.609 13.9813 153.121 13.544C153.643 13.096 154.347 12.872 155.233 12.872C156.075 12.872 156.763 13.0853 157.297 13.512C157.841 13.928 158.155 14.5253 158.241 15.304H156.913C156.859 14.8987 156.683 14.584 156.385 14.36C156.097 14.1253 155.707 14.008 155.217 14.008C154.737 14.008 154.363 14.1093 154.097 14.312C153.841 14.5147 153.713 14.7813 153.713 15.112C153.713 15.432 153.878 15.6827 154.209 15.864C154.55 16.0453 155.009 16.2 155.585 16.328C156.075 16.4347 156.539 16.568 156.977 16.728C157.425 16.8773 157.787 17.1067 158.065 17.416C158.353 17.7147 158.497 18.152 158.497 18.728C158.507 19.4427 158.235 20.0347 157.681 20.504C157.137 20.9627 156.395 21.192 155.457 21.192ZM160.417 21V9.48H161.761V14.424C162.027 13.9333 162.406 13.5547 162.897 13.288C163.387 13.0107 163.921 12.872 164.497 12.872C165.414 12.872 166.15 13.16 166.705 13.736C167.259 14.3013 167.536 15.176 167.536 16.36V21H166.209V16.504C166.209 14.8507 165.542 14.024 164.209 14.024C163.515 14.024 162.934 14.2747 162.465 14.776C161.995 15.2667 161.761 15.9707 161.761 16.888V21H160.417Z" fill="white" fill-opacity="0.8"/>
<path fill-rule="evenodd" clip-rule="evenodd" d="M14.5 14.5005C14.5 13.1192 13.3808 12 12.0005 12C10.6192 12 9.5 13.1192 9.5 14.5005C9.5 15.8808 10.6192 17 12.0005 17C13.3808 17 14.5 15.8808 14.5 14.5005Z" stroke="white" stroke-opacity="0.8" stroke-width="1.5" stroke-linecap="round" stroke-linejoin="round"/>
<path fill-rule="evenodd" clip-rule="evenodd" d="M11.9995 25C10.801 25 4.5 19.8984 4.5 14.5633C4.5 10.3866 7.8571 7 11.9995 7C16.1419 7 19.5 10.3866 19.5 14.5633C19.5 19.8984 13.198 25 11.9995 25Z" stroke="white" stroke-opacity="0.8" stroke-width="1.5" stroke-linecap="round" stroke-linejoin="round"/>
</svg>
