<svg width="195" height="32" viewBox="0 0 195 32" fill="none" xmlns="http://www.w3.org/2000/svg">
<path d="M35.144 21.192C34.1947 21.192 33.4053 20.952 32.776 20.472C32.1467 19.992 31.7787 19.3413 31.672 18.52H33.048C33.1333 18.936 33.352 19.2987 33.704 19.608C34.0667 19.9067 34.552 20.056 35.16 20.056C35.7253 20.056 36.1413 19.9387 36.408 19.704C36.6747 19.4587 36.808 19.1707 36.808 18.84C36.808 18.36 36.632 18.04 36.28 17.88C35.9387 17.72 35.4533 17.576 34.824 17.448C34.3973 17.3627 33.9707 17.24 33.544 17.08C33.1173 16.92 32.76 16.696 32.472 16.408C32.184 16.1093 32.04 15.72 32.04 15.24C32.04 14.5467 32.296 13.9813 32.808 13.544C33.3307 13.096 34.0347 12.872 34.92 12.872C35.7627 12.872 36.4507 13.0853 36.984 13.512C37.528 13.928 37.8427 14.5253 37.928 15.304H36.6C36.5467 14.8987 36.3707 14.584 36.072 14.36C35.784 14.1253 35.3947 14.008 34.904 14.008C34.424 14.008 34.0507 14.1093 33.784 14.312C33.528 14.5147 33.4 14.7813 33.4 15.112C33.4 15.432 33.5653 15.6827 33.896 15.864C34.2373 16.0453 34.696 16.2 35.272 16.328C35.7627 16.4347 36.2267 16.568 36.664 16.728C37.112 16.8773 37.4747 17.1067 37.752 17.416C38.04 17.7147 38.184 18.152 38.184 18.728C38.1947 19.4427 37.9227 20.0347 37.368 20.504C36.824 20.9627 36.0827 21.192 35.144 21.192ZM43 21.192C42.0613 21.192 41.3147 20.9093 40.76 20.344C40.2053 19.768 39.928 18.888 39.928 17.704V13.064H41.272V17.56C41.272 19.2133 41.9493 20.04 43.304 20.04C43.9973 20.04 44.568 19.7947 45.016 19.304C45.4747 18.8027 45.704 18.0933 45.704 17.176V13.064H47.048V21H45.832L45.736 19.576C45.4907 20.0773 45.1227 20.472 44.632 20.76C44.152 21.048 43.608 21.192 43 21.192ZM49.2603 24.52V13.064H50.4763L50.6043 14.376C50.8603 13.992 51.2229 13.6453 51.6923 13.336C52.1723 13.0267 52.7803 12.872 53.5163 12.872C54.3056 12.872 54.9936 13.0533 55.5803 13.416C56.1669 13.7787 56.6203 14.2747 56.9403 14.904C57.2709 15.5333 57.4363 16.248 57.4363 17.048C57.4363 17.848 57.2709 18.5627 56.9403 19.192C56.6203 19.8107 56.1616 20.3013 55.5643 20.664C54.9776 21.016 54.2896 21.192 53.5003 21.192C52.8496 21.192 52.2683 21.0587 51.7563 20.792C51.2549 20.5253 50.8709 20.152 50.6043 19.672V24.52H49.2603ZM53.3563 20.024C53.8896 20.024 54.3589 19.9013 54.7643 19.656C55.1696 19.4 55.4896 19.048 55.7243 18.6C55.9589 18.152 56.0763 17.6293 56.0763 17.032C56.0763 16.4347 55.9589 15.912 55.7243 15.464C55.4896 15.016 55.1696 14.6693 54.7643 14.424C54.3589 14.168 53.8896 14.04 53.3563 14.04C52.8229 14.04 52.3536 14.168 51.9483 14.424C51.5429 14.6693 51.2229 15.016 50.9883 15.464C50.7536 15.912 50.6363 16.4347 50.6363 17.032C50.6363 17.6293 50.7536 18.152 50.9883 18.6C51.2229 19.048 51.5429 19.4 51.9483 19.656C52.3536 19.9013 52.8229 20.024 53.3563 20.024ZM59.3071 24.52V13.064H60.5231L60.6511 14.376C60.9071 13.992 61.2698 13.6453 61.7391 13.336C62.2191 13.0267 62.8271 12.872 63.5631 12.872C64.3525 12.872 65.0405 13.0533 65.6271 13.416C66.2138 13.7787 66.6671 14.2747 66.9871 14.904C67.3178 15.5333 67.4831 16.248 67.4831 17.048C67.4831 17.848 67.3178 18.5627 66.9871 19.192C66.6671 19.8107 66.2085 20.3013 65.6111 20.664C65.0245 21.016 64.3365 21.192 63.5471 21.192C62.8965 21.192 62.3151 21.0587 61.8031 20.792C61.3018 20.5253 60.9178 20.152 60.6511 19.672V24.52H59.3071ZM63.4031 20.024C63.9365 20.024 64.4058 19.9013 64.8111 19.656C65.2165 19.4 65.5365 19.048 65.7711 18.6C66.0058 18.152 66.1231 17.6293 66.1231 17.032C66.1231 16.4347 66.0058 15.912 65.7711 15.464C65.5365 15.016 65.2165 14.6693 64.8111 14.424C64.4058 14.168 63.9365 14.04 63.4031 14.04C62.8698 14.04 62.4005 14.168 61.9951 14.424C61.5898 14.6693 61.2698 15.016 61.0351 15.464C60.8005 15.912 60.6831 16.4347 60.6831 17.032C60.6831 17.6293 60.8005 18.152 61.0351 18.6C61.2698 19.048 61.5898 19.4 61.9951 19.656C62.4005 19.9013 62.8698 20.024 63.4031 20.024ZM72.97 21.192C72.2233 21.192 71.5513 21.0213 70.954 20.68C70.3567 20.3387 69.882 19.8587 69.53 19.24C69.1887 18.6107 69.018 17.8747 69.018 17.032C69.018 16.1893 69.194 15.4587 69.546 14.84C69.898 14.2107 70.3727 13.7253 70.97 13.384C71.578 13.0427 72.2553 12.872 73.002 12.872C73.7487 12.872 74.4207 13.0427 75.018 13.384C75.6153 13.7253 76.0847 14.2107 76.426 14.84C76.778 15.4587 76.954 16.1893 76.954 17.032C76.954 17.8747 76.778 18.6107 76.426 19.24C76.074 19.8587 75.594 20.3387 74.986 20.68C74.3887 21.0213 73.7167 21.192 72.97 21.192ZM72.97 20.04C73.4287 20.04 73.8553 19.928 74.25 19.704C74.6447 19.48 74.9647 19.144 75.21 18.696C75.4553 18.248 75.578 17.6933 75.578 17.032C75.578 16.3707 75.4553 15.816 75.21 15.368C74.9753 14.92 74.6607 14.584 74.266 14.36C73.8713 14.136 73.45 14.024 73.002 14.024C72.5433 14.024 72.1167 14.136 71.722 14.36C71.3273 14.584 71.0073 14.92 70.762 15.368C70.5167 15.816 70.394 16.3707 70.394 17.032C70.394 17.6933 70.5167 18.248 70.762 18.696C71.0073 19.144 71.322 19.48 71.706 19.704C72.1007 19.928 72.522 20.04 72.97 20.04ZM78.8228 21V13.064H80.0388L80.1508 14.584C80.3961 14.0613 80.7694 13.6453 81.2708 13.336C81.7721 13.0267 82.3908 12.872 83.1268 12.872V14.28H82.7588C82.2894 14.28 81.8574 14.3653 81.4628 14.536C81.0681 14.696 80.7534 14.9733 80.5188 15.368C80.2841 15.7627 80.1668 16.3067 80.1668 17V21H78.8228ZM87.7713 21C87.0459 21 86.4753 20.824 86.0593 20.472C85.6433 20.12 85.4353 19.4853 85.4353 18.568V14.2H84.0592V13.064H85.4353L85.6113 11.16H86.7793V13.064H89.1153V14.2H86.7793V18.568C86.7793 19.0693 86.8806 19.4107 87.0833 19.592C87.2859 19.7627 87.6433 19.848 88.1553 19.848H88.9873V21H87.7713ZM96.6308 24.184C95.4894 24.184 94.4868 23.9653 93.6228 23.528C92.7694 23.0907 92.1028 22.472 91.6228 21.672C91.1534 20.872 90.9188 19.9227 90.9188 18.824C90.9188 17.6933 91.1161 16.6373 91.5108 15.656C91.9054 14.6747 92.4601 13.816 93.1748 13.08C93.8894 12.344 94.7321 11.7733 95.7028 11.368C96.6734 10.9627 97.7401 10.76 98.9028 10.76C100.087 10.76 101.116 10.9893 101.991 11.448C102.865 11.896 103.537 12.5253 104.007 13.336C104.487 14.136 104.727 15.0693 104.727 16.136C104.727 16.744 104.652 17.3467 104.503 17.944C104.353 18.5307 104.129 19.064 103.831 19.544C103.543 20.0133 103.185 20.392 102.759 20.68C102.343 20.9573 101.863 21.096 101.319 21.096C100.775 21.096 100.359 20.9573 100.071 20.68C99.7934 20.4027 99.6388 20.0293 99.6068 19.56C99.2761 20.04 98.8548 20.4187 98.3428 20.696C97.8414 20.9627 97.3081 21.096 96.7428 21.096C95.9321 21.096 95.2974 20.8507 94.8388 20.36C94.3908 19.8693 94.1668 19.208 94.1668 18.376C94.1668 17.7893 94.2574 17.2293 94.4388 16.696C94.6308 16.152 94.8974 15.672 95.2388 15.256C95.5801 14.8293 95.9854 14.4933 96.4548 14.248C96.9241 14.0027 97.4468 13.88 98.0228 13.88C99.1001 13.88 99.7988 14.3227 100.119 15.208L100.327 14.056H101.463L100.663 18.632C100.588 19.0907 100.609 19.464 100.727 19.752C100.855 20.0293 101.116 20.168 101.511 20.168C101.852 20.168 102.156 20.0507 102.423 19.816C102.689 19.5707 102.913 19.2507 103.095 18.856C103.276 18.4507 103.409 18.0187 103.495 17.56C103.591 17.0907 103.639 16.6373 103.639 16.2C103.639 14.8027 103.201 13.704 102.327 12.904C101.463 12.104 100.268 11.704 98.7428 11.704C97.7721 11.704 96.8761 11.8853 96.0548 12.248C95.2441 12.6107 94.5348 13.112 93.9268 13.752C93.3188 14.392 92.8441 15.1333 92.5028 15.976C92.1721 16.8187 92.0068 17.7307 92.0068 18.712C92.0068 19.672 92.2041 20.488 92.5988 21.16C92.9934 21.832 93.5534 22.344 94.2788 22.696C95.0041 23.048 95.8681 23.224 96.8708 23.224C97.3294 23.224 97.7881 23.176 98.2468 23.08C98.7054 22.9947 99.1321 22.8613 99.5268 22.68L99.7508 23.592C98.7908 23.9867 97.7508 24.184 96.6308 24.184ZM97.1428 20.072C97.6014 20.072 98.0228 19.9493 98.4068 19.704C98.7908 19.4587 99.1054 19.1227 99.3508 18.696C99.5961 18.2587 99.7454 17.7573 99.7988 17.192C99.8734 16.5627 99.7614 16.024 99.4628 15.576C99.1748 15.128 98.7054 14.904 98.0548 14.904C97.5108 14.904 97.0361 15.064 96.6308 15.384C96.2361 15.6933 95.9321 16.0987 95.7188 16.6C95.5054 17.1013 95.3988 17.624 95.3988 18.168C95.3988 18.744 95.5428 19.208 95.8308 19.56C96.1294 19.9013 96.5668 20.072 97.1428 20.072ZM106.482 21V19.896L110.898 14.184H106.562V13.064H112.402V14.168L107.986 19.88H112.482V21H106.482ZM117.876 21.192C117.13 21.192 116.458 21.0213 115.86 20.68C115.263 20.3387 114.788 19.8587 114.436 19.24C114.095 18.6107 113.924 17.8747 113.924 17.032C113.924 16.1893 114.1 15.4587 114.452 14.84C114.804 14.2107 115.279 13.7253 115.876 13.384C116.484 13.0427 117.162 12.872 117.908 12.872C118.655 12.872 119.327 13.0427 119.924 13.384C120.522 13.7253 120.991 14.2107 121.332 14.84C121.684 15.4587 121.86 16.1893 121.86 17.032C121.86 17.8747 121.684 18.6107 121.332 19.24C120.98 19.8587 120.5 20.3387 119.892 20.68C119.295 21.0213 118.623 21.192 117.876 21.192ZM117.876 20.04C118.335 20.04 118.762 19.928 119.156 19.704C119.551 19.48 119.871 19.144 120.116 18.696C120.362 18.248 120.484 17.6933 120.484 17.032C120.484 16.3707 120.362 15.816 120.116 15.368C119.882 14.92 119.567 14.584 119.172 14.36C118.778 14.136 118.356 14.024 117.908 14.024C117.45 14.024 117.023 14.136 116.628 14.36C116.234 14.584 115.914 14.92 115.668 15.368C115.423 15.816 115.3 16.3707 115.3 17.032C115.3 17.6933 115.423 18.248 115.668 18.696C115.914 19.144 116.228 19.48 116.612 19.704C117.007 19.928 117.428 20.04 117.876 20.04ZM123.729 21V13.064H124.945L125.025 14.488C125.281 13.9867 125.649 13.592 126.129 13.304C126.609 13.016 127.153 12.872 127.761 12.872C128.7 12.872 129.446 13.16 130.001 13.736C130.566 14.3013 130.849 15.176 130.849 16.36V21H129.505V16.504C129.505 14.8507 128.822 14.024 127.457 14.024C126.774 14.024 126.204 14.2747 125.745 14.776C125.297 15.2667 125.073 15.9707 125.073 16.888V21H123.729ZM136.453 21.192C135.696 21.192 135.024 21.0213 134.437 20.68C133.851 20.328 133.387 19.8427 133.045 19.224C132.715 18.6053 132.549 17.8747 132.549 17.032C132.549 16.2 132.715 15.4747 133.045 14.856C133.376 14.2267 133.835 13.7413 134.421 13.4C135.019 13.048 135.707 12.872 136.485 12.872C137.253 12.872 137.915 13.048 138.469 13.4C139.035 13.7413 139.467 14.1947 139.765 14.76C140.064 15.3253 140.213 15.9333 140.213 16.584C140.213 16.7013 140.208 16.8187 140.197 16.936C140.197 17.0533 140.197 17.1867 140.197 17.336H133.877C133.909 17.944 134.048 18.4507 134.293 18.856C134.549 19.2507 134.864 19.5493 135.237 19.752C135.621 19.9547 136.027 20.056 136.453 20.056C137.008 20.056 137.472 19.928 137.845 19.672C138.219 19.416 138.491 19.0693 138.661 18.632H139.989C139.776 19.368 139.365 19.9813 138.757 20.472C138.16 20.952 137.392 21.192 136.453 21.192ZM136.453 14.008C135.813 14.008 135.243 14.2053 134.741 14.6C134.251 14.984 133.968 15.5493 133.893 16.296H138.885C138.853 15.5813 138.608 15.0213 138.149 14.616C137.691 14.2107 137.125 14.008 136.453 14.008ZM142.459 21.08C142.192 21.08 141.968 20.9947 141.787 20.824C141.616 20.6427 141.531 20.424 141.531 20.168C141.531 19.912 141.616 19.6987 141.787 19.528C141.968 19.3467 142.192 19.256 142.459 19.256C142.715 19.256 142.928 19.3467 143.099 19.528C143.28 19.6987 143.371 19.912 143.371 20.168C143.371 20.424 143.28 20.6427 143.099 20.824C142.928 20.9947 142.715 21.08 142.459 21.08ZM148.768 21.192C148.01 21.192 147.328 21.0213 146.72 20.68C146.122 20.328 145.648 19.8427 145.296 19.224C144.954 18.5947 144.784 17.864 144.784 17.032C144.784 16.2 144.954 15.4747 145.296 14.856C145.648 14.2267 146.122 13.7413 146.72 13.4C147.328 13.048 148.01 12.872 148.768 12.872C149.706 12.872 150.496 13.1173 151.136 13.608C151.786 14.0987 152.197 14.7547 152.368 15.576H150.992C150.885 15.0853 150.624 14.7067 150.208 14.44C149.792 14.1627 149.306 14.024 148.752 14.024C148.304 14.024 147.882 14.136 147.488 14.36C147.093 14.584 146.773 14.92 146.528 15.368C146.282 15.816 146.16 16.3707 146.16 17.032C146.16 17.6933 146.282 18.248 146.528 18.696C146.773 19.144 147.093 19.4853 147.488 19.72C147.882 19.944 148.304 20.056 148.752 20.056C149.306 20.056 149.792 19.9227 150.208 19.656C150.624 19.3787 150.885 18.9893 150.992 18.488H152.368C152.208 19.288 151.802 19.9387 151.152 20.44C150.501 20.9413 149.706 21.192 148.768 21.192ZM157.861 21.192C157.114 21.192 156.442 21.0213 155.845 20.68C155.247 20.3387 154.773 19.8587 154.421 19.24C154.079 18.6107 153.909 17.8747 153.909 17.032C153.909 16.1893 154.085 15.4587 154.437 14.84C154.789 14.2107 155.263 13.7253 155.861 13.384C156.469 13.0427 157.146 12.872 157.893 12.872C158.639 12.872 159.311 13.0427 159.909 13.384C160.506 13.7253 160.975 14.2107 161.317 14.84C161.669 15.4587 161.845 16.1893 161.845 17.032C161.845 17.8747 161.669 18.6107 161.317 19.24C160.965 19.8587 160.485 20.3387 159.877 20.68C159.279 21.0213 158.607 21.192 157.861 21.192ZM157.861 20.04C158.319 20.04 158.746 19.928 159.141 19.704C159.535 19.48 159.855 19.144 160.101 18.696C160.346 18.248 160.469 17.6933 160.469 17.032C160.469 16.3707 160.346 15.816 160.101 15.368C159.866 14.92 159.551 14.584 159.157 14.36C158.762 14.136 158.341 14.024 157.893 14.024C157.434 14.024 157.007 14.136 156.613 14.36C156.218 14.584 155.898 14.92 155.653 15.368C155.407 15.816 155.285 16.3707 155.285 17.032C155.285 17.6933 155.407 18.248 155.653 18.696C155.898 19.144 156.213 19.48 156.597 19.704C156.991 19.928 157.413 20.04 157.861 20.04ZM163.713 21V13.064H164.929L165.025 14.216C165.281 13.7893 165.623 13.4587 166.049 13.224C166.476 12.9893 166.956 12.872 167.489 12.872C168.119 12.872 168.657 13 169.105 13.256C169.564 13.512 169.916 13.9013 170.161 14.424C170.439 13.944 170.817 13.5653 171.297 13.288C171.788 13.0107 172.316 12.872 172.881 12.872C173.831 12.872 174.588 13.16 175.153 13.736C175.719 14.3013 176.001 15.176 176.001 16.36V21H174.673V16.504C174.673 15.6827 174.508 15.064 174.177 14.648C173.847 14.232 173.372 14.024 172.753 14.024C172.113 14.024 171.58 14.2747 171.153 14.776C170.737 15.2667 170.529 15.9707 170.529 16.888V21H169.185V16.504C169.185 15.6827 169.02 15.064 168.689 14.648C168.359 14.232 167.884 14.024 167.265 14.024C166.636 14.024 166.108 14.2747 165.681 14.776C165.265 15.2667 165.057 15.9707 165.057 16.888V21H163.713Z" fill="white" fill-opacity="0.8"/>
<path d="M17.9026 12.8511L13.4593 16.4641C12.6198 17.1301 11.4387 17.1301 10.5992 16.4641L6.11841 12.8511" stroke="white" stroke-opacity="0.8" stroke-width="1.5" stroke-linecap="round" stroke-linejoin="round"/>
<path fill-rule="evenodd" clip-rule="evenodd" d="M16.9089 25C19.9502 25.0084 22 22.5095 22 19.4384V12.57C22 9.49883 19.9502 7 16.9089 7H7.09114C4.04979 7 2 9.49883 2 12.57V19.4384C2 22.5095 4.04979 25.0084 7.09114 25H16.9089Z" stroke="white" stroke-opacity="0.8" stroke-width="1.5" stroke-linecap="round" stroke-linejoin="round"/>
</svg>
