<svg width="181" height="32" viewBox="0 0 181 32" fill="none" xmlns="http://www.w3.org/2000/svg">
<path d="M36.552 21.192C35.56 21.192 34.7013 20.952 33.976 20.472C33.2613 19.9813 32.712 19.304 32.328 18.44C31.944 17.5653 31.752 16.552 31.752 15.4C31.752 14.248 31.944 13.24 32.328 12.376C32.712 11.5013 33.2613 10.824 33.976 10.344C34.7013 9.85333 35.56 9.608 36.552 9.608C37.544 9.608 38.3973 9.85333 39.112 10.344C39.8267 10.824 40.376 11.5013 40.76 12.376C41.144 13.24 41.336 14.248 41.336 15.4C41.336 16.552 41.144 17.5653 40.76 18.44C40.376 19.304 39.8267 19.9813 39.112 20.472C38.3973 20.952 37.544 21.192 36.552 21.192ZM36.552 20.008C37.2027 20.008 37.784 19.8267 38.296 19.464C38.8187 19.0907 39.224 18.5627 39.512 17.88C39.8107 17.1867 39.96 16.36 39.96 15.4C39.96 14.44 39.8107 13.6187 39.512 12.936C39.224 12.2533 38.8187 11.7307 38.296 11.368C37.784 10.9947 37.2027 10.808 36.552 10.808C35.8907 10.808 35.304 10.9947 34.792 11.368C34.28 11.7307 33.8747 12.2533 33.576 12.936C33.2773 13.6187 33.128 14.44 33.128 15.4C33.128 16.36 33.2773 17.1867 33.576 17.88C33.8747 18.5627 34.28 19.0907 34.792 19.464C35.304 19.8267 35.8907 20.008 36.552 20.008ZM46.9738 21.192C46.2698 21.192 45.6671 21.0533 45.1658 20.776C44.6644 20.4987 44.2644 20.1307 43.9658 19.672C43.6778 19.2027 43.5018 18.6853 43.4378 18.12H44.6858C44.7924 18.728 45.0484 19.1973 45.4538 19.528C45.8591 19.8587 46.3711 20.024 46.9898 20.024C47.8431 20.024 48.5524 19.6293 49.1178 18.84C49.6831 18.04 49.9871 16.7973 50.0298 15.112C49.7738 15.6133 49.3631 16.0507 48.7978 16.424C48.2431 16.7867 47.5711 16.968 46.7818 16.968C46.1524 16.968 45.5551 16.8187 44.9898 16.52C44.4244 16.2213 43.9658 15.8053 43.6138 15.272C43.2618 14.728 43.0858 14.0933 43.0858 13.368C43.0858 12.7387 43.2404 12.136 43.5498 11.56C43.8698 10.984 44.3178 10.5147 44.8938 10.152C45.4698 9.78933 46.1578 9.608 46.9578 9.608C47.7684 9.608 48.4511 9.76267 49.0058 10.072C49.5604 10.3707 50.0031 10.776 50.3338 11.288C50.6751 11.8 50.9204 12.376 51.0698 13.016C51.2298 13.6453 51.3098 14.2907 51.3098 14.952C51.3098 16.1893 51.1391 17.2773 50.7978 18.216C50.4564 19.144 49.9604 19.8747 49.3098 20.408C48.6698 20.9307 47.8911 21.192 46.9738 21.192ZM47.0538 15.8C47.5551 15.8 48.0031 15.688 48.3978 15.464C48.7924 15.2293 49.1071 14.92 49.3418 14.536C49.5764 14.152 49.6938 13.736 49.6938 13.288C49.6938 12.808 49.5764 12.3813 49.3418 12.008C49.1071 11.624 48.7924 11.3253 48.3978 11.112C48.0031 10.8987 47.5551 10.792 47.0538 10.792C46.5524 10.792 46.1044 10.8987 45.7098 11.112C45.3151 11.3253 45.0058 11.624 44.7818 12.008C44.5578 12.3813 44.4457 12.8133 44.4457 13.304C44.4457 14.0613 44.6911 14.6693 45.1818 15.128C45.6831 15.576 46.3071 15.8 47.0538 15.8ZM58.4279 21V18.6H52.7479V17.56L58.1879 9.8H59.7559V17.416H61.4199V18.6H59.7559V21H58.4279ZM54.2359 17.416H58.4919V11.288L54.2359 17.416ZM66.5314 21.192C65.8167 21.192 65.1714 21.064 64.5954 20.808C64.0194 20.5413 63.5554 20.1467 63.2034 19.624C62.862 19.1013 62.6807 18.4507 62.6594 17.672H64.0194C64.03 18.312 64.254 18.8667 64.6914 19.336C65.1287 19.7947 65.742 20.024 66.5314 20.024C67.3207 20.024 67.9127 19.8053 68.3074 19.368C68.7127 18.9307 68.9154 18.4027 68.9154 17.784C68.9154 17.2613 68.7874 16.8347 68.5314 16.504C68.286 16.1733 67.95 15.928 67.5234 15.768C67.1074 15.608 66.6487 15.528 66.1474 15.528H65.3154V14.392H66.1474C66.8727 14.392 67.438 14.2267 67.8434 13.896C68.2594 13.5653 68.4674 13.1013 68.4674 12.504C68.4674 12.0027 68.302 11.592 67.9714 11.272C67.6514 10.9413 67.1714 10.776 66.5314 10.776C65.9127 10.776 65.4167 10.9627 65.0434 11.336C64.67 11.6987 64.462 12.1573 64.4194 12.712H63.0594C63.0914 12.104 63.2514 11.5653 63.5394 11.096C63.838 10.6267 64.2434 10.264 64.7554 10.008C65.2674 9.74133 65.8594 9.608 66.5314 9.608C67.2567 9.608 67.8594 9.736 68.3394 9.992C68.83 10.248 69.198 10.5893 69.4434 11.016C69.6994 11.4427 69.8274 11.912 69.8274 12.424C69.8274 12.9893 69.6727 13.5067 69.3634 13.976C69.054 14.4347 68.59 14.744 67.9714 14.904C68.6327 15.0427 69.182 15.3573 69.6194 15.848C70.0567 16.3387 70.2754 16.984 70.2754 17.784C70.2754 18.4027 70.1314 18.9733 69.8434 19.496C69.566 20.008 69.15 20.4187 68.5954 20.728C68.0407 21.0373 67.3527 21.192 66.5314 21.192ZM76.1456 21.192C75.4096 21.192 74.7483 21.0587 74.1616 20.792C73.575 20.5147 73.111 20.136 72.7696 19.656C72.439 19.1653 72.2736 18.6 72.2736 17.96C72.2736 17.2773 72.471 16.664 72.8656 16.12C73.271 15.576 73.8043 15.2133 74.4656 15.032C73.8576 14.8293 73.3883 14.504 73.0576 14.056C72.727 13.608 72.5616 13.1173 72.5616 12.584C72.5616 12.04 72.7056 11.544 72.9936 11.096C73.2816 10.6373 73.6923 10.2747 74.2256 10.008C74.759 9.74133 75.399 9.608 76.1456 9.608C76.8923 9.608 77.5323 9.74133 78.0656 10.008C78.599 10.2747 79.0096 10.6373 79.2976 11.096C79.5856 11.544 79.7296 12.04 79.7296 12.584C79.7296 13.1067 79.5643 13.5973 79.2336 14.056C78.903 14.504 78.4336 14.8293 77.8256 15.032C78.487 15.2133 79.015 15.576 79.4096 16.12C79.815 16.664 80.0176 17.2773 80.0176 17.96C80.0176 18.6 79.847 19.1653 79.5056 19.656C79.175 20.136 78.7163 20.5147 78.1296 20.792C77.543 21.0587 76.8816 21.192 76.1456 21.192ZM76.1456 14.552C76.8283 14.552 77.367 14.3813 77.7616 14.04C78.167 13.688 78.3696 13.2293 78.3696 12.664C78.3696 12.0347 78.1723 11.56 77.7776 11.24C77.383 10.92 76.839 10.76 76.1456 10.76C75.4523 10.76 74.9083 10.92 74.5136 11.24C74.1296 11.56 73.9376 12.0347 73.9376 12.664C73.9376 13.2293 74.135 13.688 74.5296 14.04C74.9243 14.3813 75.463 14.552 76.1456 14.552ZM76.1456 20.008C76.9883 20.008 77.6176 19.816 78.0336 19.432C78.4603 19.0373 78.6736 18.52 78.6736 17.88C78.6736 17.1547 78.4443 16.6053 77.9856 16.232C77.527 15.8587 76.9136 15.672 76.1456 15.672C75.3776 15.672 74.7643 15.8587 74.3056 16.232C73.847 16.6053 73.6176 17.1547 73.6176 17.88C73.6176 18.52 73.8256 19.0373 74.2416 19.432C74.6683 19.816 75.303 20.008 76.1456 20.008ZM85.7033 21.192C84.9886 21.192 84.3433 21.064 83.7673 20.808C83.1913 20.5413 82.7273 20.1467 82.3753 19.624C82.0339 19.1013 81.8526 18.4507 81.8313 17.672H83.1913C83.2019 18.312 83.4259 18.8667 83.8633 19.336C84.3006 19.7947 84.9139 20.024 85.7033 20.024C86.4926 20.024 87.0846 19.8053 87.4793 19.368C87.8846 18.9307 88.0873 18.4027 88.0873 17.784C88.0873 17.2613 87.9593 16.8347 87.7033 16.504C87.4579 16.1733 87.1219 15.928 86.6953 15.768C86.2793 15.608 85.8206 15.528 85.3193 15.528H84.4873V14.392H85.3193C86.0446 14.392 86.6099 14.2267 87.0153 13.896C87.4313 13.5653 87.6393 13.1013 87.6393 12.504C87.6393 12.0027 87.4739 11.592 87.1433 11.272C86.8233 10.9413 86.3433 10.776 85.7033 10.776C85.0846 10.776 84.5886 10.9627 84.2153 11.336C83.8419 11.6987 83.6339 12.1573 83.5913 12.712H82.2313C82.2633 12.104 82.4233 11.5653 82.7113 11.096C83.0099 10.6267 83.4153 10.264 83.9273 10.008C84.4393 9.74133 85.0313 9.608 85.7033 9.608C86.4286 9.608 87.0313 9.736 87.5113 9.992C88.0019 10.248 88.3699 10.5893 88.6153 11.016C88.8713 11.4427 88.9993 11.912 88.9993 12.424C88.9993 12.9893 88.8446 13.5067 88.5353 13.976C88.2259 14.4347 87.7619 14.744 87.1433 14.904C87.8046 15.0427 88.3539 15.3573 88.7913 15.848C89.2286 16.3387 89.4473 16.984 89.4473 17.784C89.4473 18.4027 89.3033 18.9733 89.0153 19.496C88.7379 20.008 88.3219 20.4187 87.7673 20.728C87.2126 21.0373 86.5246 21.192 85.7033 21.192ZM95.1095 21.192C94.3948 21.192 93.7495 21.064 93.1735 20.808C92.5975 20.5413 92.1335 20.1467 91.7815 19.624C91.4402 19.1013 91.2588 18.4507 91.2375 17.672H92.5975C92.6082 18.312 92.8322 18.8667 93.2695 19.336C93.7068 19.7947 94.3202 20.024 95.1095 20.024C95.8988 20.024 96.4908 19.8053 96.8855 19.368C97.2908 18.9307 97.4935 18.4027 97.4935 17.784C97.4935 17.2613 97.3655 16.8347 97.1095 16.504C96.8642 16.1733 96.5282 15.928 96.1015 15.768C95.6855 15.608 95.2268 15.528 94.7255 15.528H93.8935V14.392H94.7255C95.4508 14.392 96.0162 14.2267 96.4215 13.896C96.8375 13.5653 97.0455 13.1013 97.0455 12.504C97.0455 12.0027 96.8802 11.592 96.5495 11.272C96.2295 10.9413 95.7495 10.776 95.1095 10.776C94.4908 10.776 93.9948 10.9627 93.6215 11.336C93.2482 11.6987 93.0402 12.1573 92.9975 12.712H91.6375C91.6695 12.104 91.8295 11.5653 92.1175 11.096C92.4162 10.6267 92.8215 10.264 93.3335 10.008C93.8455 9.74133 94.4375 9.608 95.1095 9.608C95.8348 9.608 96.4375 9.736 96.9175 9.992C97.4082 10.248 97.7762 10.5893 98.0215 11.016C98.2775 11.4427 98.4055 11.912 98.4055 12.424C98.4055 12.9893 98.2508 13.5067 97.9415 13.976C97.6322 14.4347 97.1682 14.744 96.5495 14.904C97.2108 15.0427 97.7602 15.3573 98.1975 15.848C98.6348 16.3387 98.8535 16.984 98.8535 17.784C98.8535 18.4027 98.7095 18.9733 98.4215 19.496C98.1442 20.008 97.7282 20.4187 97.1735 20.728C96.6188 21.0373 95.9308 21.192 95.1095 21.192ZM104.516 21.192C103.801 21.192 103.156 21.064 102.58 20.808C102.004 20.5413 101.54 20.1467 101.188 19.624C100.846 19.1013 100.665 18.4507 100.644 17.672H102.004C102.014 18.312 102.238 18.8667 102.676 19.336C103.113 19.7947 103.726 20.024 104.516 20.024C105.305 20.024 105.897 19.8053 106.292 19.368C106.697 18.9307 106.9 18.4027 106.9 17.784C106.9 17.2613 106.772 16.8347 106.516 16.504C106.27 16.1733 105.934 15.928 105.508 15.768C105.092 15.608 104.633 15.528 104.132 15.528H103.3V14.392H104.132C104.857 14.392 105.422 14.2267 105.828 13.896C106.244 13.5653 106.452 13.1013 106.452 12.504C106.452 12.0027 106.286 11.592 105.956 11.272C105.636 10.9413 105.156 10.776 104.516 10.776C103.897 10.776 103.401 10.9627 103.028 11.336C102.654 11.6987 102.446 12.1573 102.404 12.712H101.044C101.076 12.104 101.236 11.5653 101.524 11.096C101.822 10.6267 102.228 10.264 102.74 10.008C103.252 9.74133 103.844 9.608 104.516 9.608C105.241 9.608 105.844 9.736 106.324 9.992C106.814 10.248 107.182 10.5893 107.428 11.016C107.684 11.4427 107.812 11.912 107.812 12.424C107.812 12.9893 107.657 13.5067 107.348 13.976C107.038 14.4347 106.574 14.744 105.956 14.904C106.617 15.0427 107.166 15.3573 107.604 15.848C108.041 16.3387 108.26 16.984 108.26 17.784C108.26 18.4027 108.116 18.9733 107.828 19.496C107.55 20.008 107.134 20.4187 106.58 20.728C106.025 21.0373 105.337 21.192 104.516 21.192ZM113.661 21.192C112.957 21.192 112.355 21.0533 111.853 20.776C111.352 20.4987 110.952 20.1307 110.653 19.672C110.365 19.2027 110.189 18.6853 110.125 18.12H111.373C111.48 18.728 111.736 19.1973 112.141 19.528C112.547 19.8587 113.059 20.024 113.677 20.024C114.531 20.024 115.24 19.6293 115.805 18.84C116.371 18.04 116.675 16.7973 116.717 15.112C116.461 15.6133 116.051 16.0507 115.485 16.424C114.931 16.7867 114.259 16.968 113.469 16.968C112.84 16.968 112.243 16.8187 111.677 16.52C111.112 16.2213 110.653 15.8053 110.301 15.272C109.949 14.728 109.773 14.0933 109.773 13.368C109.773 12.7387 109.928 12.136 110.237 11.56C110.557 10.984 111.005 10.5147 111.581 10.152C112.157 9.78933 112.845 9.608 113.645 9.608C114.456 9.608 115.139 9.76267 115.693 10.072C116.248 10.3707 116.691 10.776 117.021 11.288C117.363 11.8 117.608 12.376 117.757 13.016C117.917 13.6453 117.997 14.2907 117.997 14.952C117.997 16.1893 117.827 17.2773 117.485 18.216C117.144 19.144 116.648 19.8747 115.997 20.408C115.357 20.9307 114.579 21.192 113.661 21.192ZM113.741 15.8C114.243 15.8 114.691 15.688 115.085 15.464C115.48 15.2293 115.795 14.92 116.029 14.536C116.264 14.152 116.381 13.736 116.381 13.288C116.381 12.808 116.264 12.3813 116.029 12.008C115.795 11.624 115.48 11.3253 115.085 11.112C114.691 10.8987 114.243 10.792 113.741 10.792C113.24 10.792 112.792 10.8987 112.397 11.112C112.003 11.3253 111.693 11.624 111.469 12.008C111.245 12.3813 111.133 12.8133 111.133 13.304C111.133 14.0613 111.379 14.6693 111.869 15.128C112.371 15.576 112.995 15.8 113.741 15.8ZM123.739 21.192C123.035 21.192 122.433 21.0533 121.931 20.776C121.43 20.4987 121.03 20.1307 120.731 19.672C120.443 19.2027 120.267 18.6853 120.203 18.12H121.451C121.558 18.728 121.814 19.1973 122.219 19.528C122.625 19.8587 123.137 20.024 123.755 20.024C124.609 20.024 125.318 19.6293 125.883 18.84C126.449 18.04 126.753 16.7973 126.795 15.112C126.539 15.6133 126.129 16.0507 125.563 16.424C125.009 16.7867 124.337 16.968 123.547 16.968C122.918 16.968 122.321 16.8187 121.755 16.52C121.19 16.2213 120.731 15.8053 120.379 15.272C120.027 14.728 119.851 14.0933 119.851 13.368C119.851 12.7387 120.006 12.136 120.315 11.56C120.635 10.984 121.083 10.5147 121.659 10.152C122.235 9.78933 122.923 9.608 123.723 9.608C124.534 9.608 125.217 9.76267 125.771 10.072C126.326 10.3707 126.769 10.776 127.099 11.288C127.441 11.8 127.686 12.376 127.835 13.016C127.995 13.6453 128.075 14.2907 128.075 14.952C128.075 16.1893 127.905 17.2773 127.563 18.216C127.222 19.144 126.726 19.8747 126.075 20.408C125.435 20.9307 124.657 21.192 123.739 21.192ZM123.819 15.8C124.321 15.8 124.769 15.688 125.163 15.464C125.558 15.2293 125.873 14.92 126.107 14.536C126.342 14.152 126.459 13.736 126.459 13.288C126.459 12.808 126.342 12.3813 126.107 12.008C125.873 11.624 125.558 11.3253 125.163 11.112C124.769 10.8987 124.321 10.792 123.819 10.792C123.318 10.792 122.87 10.8987 122.475 11.112C122.081 11.3253 121.771 11.624 121.547 12.008C121.323 12.3813 121.211 12.8133 121.211 13.304C121.211 14.0613 121.457 14.6693 121.947 15.128C122.449 15.576 123.073 15.8 123.819 15.8Z" fill="white" fill-opacity="0.8"/>
<path d="M14.353 6.5C18.054 6.911 20.978 9.831 21.393 13.532" stroke="white" stroke-opacity="0.8" stroke-width="1.5" stroke-linecap="round" stroke-linejoin="round"/>
<path d="M14.353 10.043C16.124 10.387 17.508 11.772 17.853 13.543" stroke="white" stroke-opacity="0.8" stroke-width="1.5" stroke-linecap="round" stroke-linejoin="round"/>
<path fill-rule="evenodd" clip-rule="evenodd" d="M11.0315 16.4724C15.0205 20.4604 15.9254 15.8467 18.4653 18.3848C20.9138 20.8328 22.3222 21.3232 19.2188 24.4247C18.8302 24.737 16.3613 28.4943 7.68447 19.8197C-0.993406 11.144 2.76157 8.67244 3.07394 8.28395C6.18377 5.17385 6.66682 6.58938 9.11539 9.03733C11.6541 11.5765 7.04254 12.4844 11.0315 16.4724Z" stroke="white" stroke-opacity="0.8" stroke-width="1.5" stroke-linecap="round" stroke-linejoin="round"/>
</svg>
