<svg width="174" height="33" viewBox="0 0 174 33" fill="none" xmlns="http://www.w3.org/2000/svg">
<circle cx="16.1" cy="16.1" r="15.6" fill="url(#paint0_linear_1_459)" fill-opacity="0.05" stroke="url(#paint1_linear_1_459)"/>
<path d="M13.9658 24.5738V16.6216H11.8631V13.7585H13.9658V11.3129C13.9658 9.39123 15.2079 7.62646 18.07 7.62646C19.2287 7.62646 20.0856 7.73755 20.0856 7.73755L20.0181 10.4113C20.0181 10.4113 19.1442 10.4028 18.1906 10.4028C17.1585 10.4028 16.9932 10.8784 16.9932 11.6678V13.7585H20.1001L19.965 16.6216H16.9932V24.5738H13.9658Z" fill="white" fill-opacity="0.8"/>
<circle cx="63.3" cy="16.1" r="15.6" fill="url(#paint2_linear_1_459)" fill-opacity="0.05" stroke="url(#paint3_linear_1_459)"/>
<path d="M71.7737 10.9568C71.1505 11.2256 70.4723 11.4191 69.7737 11.4945C70.499 11.0636 71.0421 10.3828 71.3012 9.57996C70.6206 9.98483 69.875 10.2687 69.0975 10.4191C68.7725 10.0717 68.3795 9.79491 67.9429 9.60604C67.5063 9.41718 67.0355 9.32025 66.5598 9.3213C64.6351 9.3213 63.0872 10.8814 63.0872 12.7959C63.0872 13.0647 63.1198 13.3336 63.1727 13.5923C60.2908 13.4415 57.7205 12.0647 56.0117 9.95675C55.7004 10.4886 55.5372 11.0941 55.5392 11.7103C55.5392 12.9161 56.1522 13.9792 57.0871 14.6045C56.5362 14.5828 55.9982 14.4314 55.5168 14.1625V14.2053C55.5168 15.8937 56.7103 17.2929 58.301 17.6147C58.0023 17.6923 57.6951 17.732 57.3865 17.7329C57.1604 17.7329 56.9466 17.7105 56.7307 17.6799C57.1706 19.0567 58.4517 20.0567 59.9772 20.0893C58.7837 21.0242 57.2887 21.5741 55.6655 21.5741C55.3742 21.5741 55.1054 21.5639 54.8264 21.5313C56.3661 22.5191 58.193 23.0894 60.1605 23.0894C66.5476 23.0894 70.0425 17.798 70.0425 13.2053C70.0425 13.0546 70.0425 12.9039 70.0323 12.7531C70.7085 12.2582 71.3012 11.6452 71.7737 10.9568Z" fill="white" fill-opacity="0.8"/>
<circle cx="110.5" cy="16.1" r="15.6" fill="url(#paint4_linear_1_459)" fill-opacity="0.05" stroke="url(#paint5_linear_1_459)"/>
<path d="M110.074 13.8394C108.596 13.8394 107.39 15.0457 107.39 16.5239C107.39 18.0021 108.596 19.2084 110.074 19.2084C111.553 19.2084 112.759 18.0021 112.759 16.5239C112.759 15.0457 111.553 13.8394 110.074 13.8394ZM118.126 16.5239C118.126 15.4122 118.136 14.3106 118.073 13.201C118.011 11.9121 117.717 10.7683 116.774 9.82578C115.83 8.88128 114.688 8.58927 113.399 8.52684C112.288 8.46441 111.186 8.47448 110.076 8.47448C108.965 8.47448 107.863 8.46441 106.754 8.52684C105.465 8.58927 104.321 8.88329 103.378 9.82578C102.434 10.7703 102.142 11.9121 102.079 13.201C102.017 14.3127 102.027 15.4142 102.027 16.5239C102.027 17.6335 102.017 18.7371 102.079 19.8467C102.142 21.1356 102.436 22.2795 103.378 23.222C104.323 24.1665 105.465 24.4585 106.754 24.5209C107.865 24.5833 108.967 24.5733 110.076 24.5733C111.188 24.5733 112.29 24.5833 113.399 24.5209C114.688 24.4585 115.832 24.1645 116.774 23.222C117.719 22.2775 118.011 21.1356 118.073 19.8467C118.138 18.7371 118.126 17.6355 118.126 16.5239ZM110.074 20.6543C107.789 20.6543 105.944 18.8096 105.944 16.5239C105.944 14.2381 107.789 12.3934 110.074 12.3934C112.36 12.3934 114.205 14.2381 114.205 16.5239C114.205 18.8096 112.36 20.6543 110.074 20.6543ZM114.374 13.1889C113.84 13.1889 113.409 12.758 113.409 12.2243C113.409 11.6906 113.84 11.2596 114.374 11.2596C114.908 11.2596 115.339 11.6906 115.339 12.2243C115.339 12.351 115.314 12.4765 115.266 12.5936C115.217 12.7107 115.146 12.8171 115.056 12.9067C114.967 12.9963 114.86 13.0674 114.743 13.1158C114.626 13.1642 114.501 13.1891 114.374 13.1889Z" fill="white" fill-opacity="0.8"/>
<circle cx="157.7" cy="16.1" r="15.6" fill="url(#paint6_linear_1_459)" fill-opacity="0.05" stroke="url(#paint7_linear_1_459)"/>
<path d="M150.921 13.7054C150.921 12.9727 151.049 12.2805 151.302 11.6344C151.543 11.0069 151.901 10.431 152.357 9.93736C152.813 9.45018 153.334 9.02891 153.906 8.68573C154.492 8.33082 155.127 8.06307 155.791 7.89087C156.463 7.71449 157.154 7.62554 157.849 7.62622C158.922 7.62622 159.92 7.85319 160.846 8.30525C161.759 8.74906 162.537 9.43016 163.098 10.2773C163.676 11.1391 163.963 12.1138 163.963 13.2006C163.963 13.8523 163.899 14.4899 163.768 15.1134C163.64 15.7365 163.435 16.3415 163.16 16.915C162.897 17.4702 162.554 17.9833 162.141 18.4379C161.726 18.8852 161.223 19.2423 160.664 19.487C160.057 19.753 159.401 19.8869 158.738 19.8797C158.277 19.8797 157.818 19.7714 157.364 19.5539C156.91 19.3373 156.584 19.0397 156.388 18.6583C156.319 18.9229 156.225 19.3053 156.1 19.8053C155.98 20.3045 155.899 20.6266 155.863 20.7726C155.825 20.9176 155.755 21.1596 155.654 21.4949C155.585 21.7429 155.496 21.9851 155.389 22.2191L155.065 22.8539C154.925 23.1263 154.768 23.3898 154.596 23.6431C154.426 23.8899 154.215 24.1846 153.963 24.5237L153.823 24.5736L153.73 24.4719C153.629 23.4048 153.577 22.7663 153.577 22.5554C153.577 21.9309 153.651 21.2303 153.798 20.4524C153.942 19.6754 154.17 18.6988 154.476 17.5244C154.783 16.3509 154.958 15.6606 155.005 15.4562C154.789 15.0164 154.68 14.4419 154.68 13.7356C154.68 13.1714 154.856 12.6431 155.209 12.1458C155.563 11.6505 156.011 11.4028 156.553 11.4028C156.968 11.4028 157.29 11.5403 157.521 11.8162C157.753 12.0912 157.866 12.4378 157.866 12.8606C157.866 13.3089 157.717 13.9578 157.418 14.8064C157.118 15.6559 156.969 16.2897 156.969 16.7107C156.969 17.1373 157.122 17.4942 157.427 17.7739C157.728 18.0538 158.126 18.2054 158.537 18.1968C158.91 18.1968 159.256 18.112 159.577 17.9416C159.893 17.7761 160.167 17.5398 160.377 17.2512C160.834 16.6243 161.159 15.9116 161.334 15.1558C161.425 14.7583 161.495 14.3807 161.538 14.0256C161.584 13.6687 161.604 13.3315 161.604 13.0113C161.604 11.8369 161.231 10.9215 160.49 10.266C159.745 9.61056 158.775 9.2847 157.581 9.2847C156.224 9.2847 155.09 9.72357 154.181 10.6041C153.271 11.4819 152.813 12.5979 152.813 13.9512C152.813 14.2498 152.858 14.538 152.944 14.8167C153.028 15.0946 153.119 15.3159 153.218 15.4797C153.316 15.6408 153.408 15.7981 153.492 15.9431C153.577 16.0881 153.621 16.1917 153.621 16.2539C153.621 16.4441 153.571 16.6918 153.471 16.9979C153.366 17.304 153.243 17.4565 153.094 17.4565C153.08 17.4565 153.021 17.4462 152.92 17.4245C152.567 17.3194 152.249 17.1228 151.998 16.8547C151.731 16.577 151.52 16.2501 151.377 15.8922C151.235 15.5356 151.124 15.1673 151.046 14.7913C150.961 14.4356 150.919 14.071 150.921 13.7054Z" fill="white" fill-opacity="0.8"/>
<defs>
<linearGradient id="paint0_linear_1_459" x1="16.1" y1="0" x2="16.1" y2="32.2" gradientUnits="userSpaceOnUse">
<stop stop-color="#FEFEFF" stop-opacity="0.29"/>
<stop offset="1" stop-color="white" stop-opacity="0.4"/>
</linearGradient>
<linearGradient id="paint1_linear_1_459" x1="-1.54448" y1="2.15937" x2="35.5021" y2="6.78831" gradientUnits="userSpaceOnUse">
<stop stop-color="white" stop-opacity="0.08"/>
<stop offset="1" stop-color="white" stop-opacity="0.07"/>
</linearGradient>
<linearGradient id="paint2_linear_1_459" x1="63.3" y1="0" x2="63.3" y2="32.2" gradientUnits="userSpaceOnUse">
<stop stop-color="#FEFEFF" stop-opacity="0.29"/>
<stop offset="1" stop-color="white" stop-opacity="0.4"/>
</linearGradient>
<linearGradient id="paint3_linear_1_459" x1="45.6555" y1="2.15937" x2="82.7022" y2="6.78831" gradientUnits="userSpaceOnUse">
<stop stop-color="white" stop-opacity="0.08"/>
<stop offset="1" stop-color="white" stop-opacity="0.07"/>
</linearGradient>
<linearGradient id="paint4_linear_1_459" x1="110.5" y1="0" x2="110.5" y2="32.2" gradientUnits="userSpaceOnUse">
<stop stop-color="#FEFEFF" stop-opacity="0.29"/>
<stop offset="1" stop-color="white" stop-opacity="0.4"/>
</linearGradient>
<linearGradient id="paint5_linear_1_459" x1="92.8555" y1="2.15937" x2="129.902" y2="6.78831" gradientUnits="userSpaceOnUse">
<stop stop-color="white" stop-opacity="0.08"/>
<stop offset="1" stop-color="white" stop-opacity="0.07"/>
</linearGradient>
<linearGradient id="paint6_linear_1_459" x1="157.7" y1="0" x2="157.7" y2="32.2" gradientUnits="userSpaceOnUse">
<stop stop-color="#FEFEFF" stop-opacity="0.29"/>
<stop offset="1" stop-color="white" stop-opacity="0.4"/>
</linearGradient>
<linearGradient id="paint7_linear_1_459" x1="140.056" y1="2.15937" x2="177.102" y2="6.78831" gradientUnits="userSpaceOnUse">
<stop stop-color="white" stop-opacity="0.08"/>
<stop offset="1" stop-color="white" stop-opacity="0.07"/>
</linearGradient>
</defs>
</svg>
